<svg width="144" height="30" viewBox="0 0 144 30" fill="none" xmlns="http://www.w3.org/2000/svg"><path d="M45.4076 15.0935V17.5295H47.1704C46.9774 17.8597 46.7615 18.1492 46.5227 18.3905C46.2839 18.6344 46.0325 18.8351 45.7632 18.99C45.494 19.1475 45.2171 19.2643 44.9326 19.3405C44.6481 19.4193 44.3611 19.4574 44.0741 19.4574C43.5686 19.4574 43.0936 19.3558 42.6491 19.1526C42.2046 18.9494 41.8159 18.6674 41.4781 18.3093C41.1403 17.9511 40.8761 17.5295 40.6856 17.0494C40.4951 16.5668 40.3985 16.0537 40.3985 15.5025C40.3985 14.903 40.5002 14.3569 40.7034 13.8616C40.9066 13.3663 41.1809 12.9421 41.5238 12.5864C41.8667 12.2308 42.2579 11.9565 42.6948 11.7609C43.1317 11.5679 43.5864 11.4713 44.0537 11.4713C44.5211 11.4713 44.9732 11.5729 45.4279 11.7762C45.8826 11.9794 46.2966 12.2969 46.6802 12.7261L49.1923 11.3774C48.4811 10.4274 47.681 9.74154 46.792 9.31481C45.9055 8.89061 45.0037 8.67725 44.0918 8.67725C43.2612 8.67725 42.456 8.83981 41.6788 9.16494C40.9015 9.49007 40.203 9.95491 39.5883 10.5569C38.9736 11.1615 38.4859 11.8752 38.1252 12.6982C37.767 13.5237 37.5867 14.4382 37.5867 15.444C37.5867 16.3763 37.7492 17.2526 38.0744 18.0781C38.3995 18.9036 38.8516 19.6301 39.4333 20.2575C40.015 20.8849 40.6983 21.3777 41.4806 21.7333C42.2655 22.0889 43.1164 22.2667 44.0334 22.2667C44.9504 22.2667 45.8293 22.0788 46.6294 21.7054C47.4295 21.3294 48.1255 20.8113 48.7199 20.1508C49.3143 19.4879 49.7689 18.7258 50.0839 17.8597C50.3989 16.9935 50.531 16.0714 50.4827 15.091H45.4025L45.4076 15.0935Z" fill="#505263"/><path d="M57.4325 12.3961C56.988 12.3961 56.5663 12.4698 56.1675 12.6196C55.7662 12.7695 55.4106 12.9778 55.0982 13.247L55.088 12.6552H52.2761L52.2863 22.0281H55.0982V16.826C55.0982 16.5314 55.1693 16.2647 55.309 16.0259C55.4487 15.7846 55.6392 15.5941 55.8805 15.4544C56.1218 15.3147 56.3885 15.2435 56.6806 15.2435C56.9118 15.2435 57.1379 15.2943 57.3563 15.3934L58.4612 12.5434C58.1107 12.4444 57.7678 12.3936 57.43 12.3936L57.4325 12.3961Z" fill="#505263"/><path d="M65.5073 13.0615C64.7986 12.617 64.0112 12.396 63.1501 12.396C62.5074 12.396 61.9003 12.523 61.3314 12.7795C60.7624 13.0361 60.2645 13.3917 59.8352 13.8438C59.406 14.296 59.0707 14.8218 58.8268 15.4187C58.583 16.0156 58.4611 16.6583 58.4611 17.3441C58.4611 18.2509 58.6719 19.0764 59.0935 19.8232C59.5152 20.57 60.0816 21.1644 60.7903 21.6089C61.499 22.0534 62.2864 22.2744 63.1475 22.2744C63.7978 22.2744 64.4049 22.1474 64.9713 21.8909C65.5378 21.6343 66.0331 21.2812 66.4623 20.8266C66.8891 20.3744 67.2269 19.8512 67.4708 19.2568C67.7146 18.6624 67.8365 18.0248 67.8365 17.3441C67.8365 16.4322 67.6257 15.6016 67.2041 14.8523C66.7824 14.1029 66.216 13.506 65.5073 13.0615ZM64.7808 18.3982C64.6182 18.7208 64.3947 18.9774 64.1102 19.1704C63.8257 19.3635 63.5057 19.46 63.1501 19.46C62.8122 19.46 62.5023 19.366 62.2179 19.178C61.9334 18.9901 61.7048 18.7386 61.5346 18.4185C61.3618 18.0985 61.2755 17.7403 61.2755 17.3416C61.2755 16.9428 61.3593 16.6075 61.5244 16.2823C61.6895 15.9572 61.9156 15.6956 62.2001 15.5C62.4846 15.3044 62.8021 15.2053 63.1501 15.2053C63.4981 15.2053 63.7978 15.3019 64.0823 15.4924C64.3668 15.6829 64.5954 15.942 64.7656 16.2646C64.9383 16.5897 65.0221 16.9478 65.0221 17.3416C65.0221 17.7353 64.9408 18.0756 64.7783 18.3957L64.7808 18.3982Z" fill="#505263"/><path d="M78.9516 17.9259L77.2066 12.6577H74.4709L72.7284 17.9259L70.9656 12.6577H68.2096L71.339 22.0306H74.095L75.84 16.7625L77.5825 22.0306H80.3385L83.4679 12.6577H80.7119L78.9516 17.9259Z" fill="#505263"/><path d="M100.319 10.6615C99.7249 10.0367 99.039 9.54899 98.2567 9.19338C97.4743 8.84031 96.6386 8.66504 95.7445 8.66504C94.8504 8.66504 94.0223 8.84285 93.2425 9.19338C92.4602 9.54645 91.7744 10.0367 91.18 10.6615C90.5856 11.2864 90.1208 12.0103 89.7829 12.8308C89.4451 13.6512 89.2775 14.5326 89.2775 15.4699C89.2775 16.4072 89.4476 17.2861 89.7829 18.1091C90.1208 18.9321 90.5856 19.6535 91.18 20.2783C91.7744 20.9032 92.4602 21.3909 93.2425 21.744C94.0249 22.097 94.858 22.2723 95.7445 22.2723C96.631 22.2723 97.4743 22.0945 98.2567 21.744C99.0365 21.3909 99.7249 20.9032 100.319 20.2783C100.914 19.6535 101.376 18.9295 101.711 18.1091C102.046 17.2886 102.212 16.4072 102.212 15.4699C102.212 14.5326 102.044 13.6538 101.711 12.8308C101.376 12.0103 100.914 11.2864 100.319 10.6615ZM99.1152 17.0169C98.9247 17.4995 98.6606 17.9211 98.3227 18.2869C97.9849 18.6527 97.5963 18.9397 97.1568 19.1505C96.7148 19.3588 96.2449 19.4655 95.7471 19.4655C95.2492 19.4655 94.7768 19.3614 94.3373 19.1505C93.8979 18.9422 93.5067 18.6527 93.1714 18.2869C92.8336 17.9211 92.5694 17.4969 92.3789 17.0169C92.1884 16.5368 92.0944 16.0211 92.0944 15.4699C92.0944 14.9187 92.1884 14.4056 92.3789 13.923C92.5694 13.4404 92.8336 13.0188 93.1714 12.653C93.5093 12.2872 93.8979 12.0002 94.3373 11.7919C94.7768 11.5836 95.2467 11.4769 95.7471 11.4769C96.2475 11.4769 96.7174 11.5811 97.1568 11.7919C97.5963 12.0002 97.9849 12.2897 98.3227 12.653C98.6606 13.0188 98.9247 13.4429 99.1152 13.923C99.3057 14.4031 99.4023 14.9187 99.4023 15.4699C99.4023 16.0211 99.3057 16.5342 99.1152 17.0169Z" fill="#505263"/><path d="M110.985 12.8863C110.433 12.5587 109.821 12.3936 109.148 12.3936C108.704 12.3936 108.282 12.4672 107.883 12.6171C107.484 12.7669 107.126 12.9752 106.814 13.2445L106.804 12.6526H103.992L104.002 22.0256H106.814V16.8235C106.814 16.5288 106.885 16.2621 107.025 16.0233C107.164 15.782 107.355 15.5915 107.596 15.4518C107.838 15.3121 108.104 15.241 108.396 15.241C108.688 15.241 108.955 15.3121 109.194 15.4518C109.43 15.5915 109.623 15.782 109.765 16.0233C109.908 16.2647 109.981 16.5314 109.981 16.8235V22.0256H112.793V16.036C112.793 15.3604 112.628 14.7482 112.3 14.1996C111.973 13.6509 111.533 13.2115 110.985 12.8838V12.8863Z" fill="#505263"/><path d="M117.48 7.97119H114.668V22.0306H117.48V7.97119Z" fill="#505263"/><path d="M121.145 8.87061C120.746 8.87061 120.409 9.00777 120.134 9.27956C119.86 9.55135 119.723 9.8841 119.723 10.2778C119.723 10.6715 119.86 11.0119 120.134 11.2812C120.409 11.5504 120.749 11.685 121.155 11.685C121.562 11.685 121.887 11.5504 122.154 11.2812C122.418 11.0119 122.552 10.6791 122.552 10.2778C122.552 9.87648 122.415 9.55135 122.143 9.27956C121.872 9.00777 121.539 8.87061 121.145 8.87061Z" fill="#505263"/><path d="M122.543 12.6577H119.731V22.0306H122.543V12.6577Z" fill="#505263"/><path d="M131.689 12.8863C131.138 12.5587 130.526 12.3936 129.853 12.3936C129.408 12.3936 128.987 12.4672 128.588 12.6171C128.189 12.7669 127.831 12.9752 127.518 13.2445L127.508 12.6526H124.696L124.707 22.0256H127.518V16.8235C127.518 16.5288 127.59 16.2621 127.729 16.0233C127.869 15.782 128.059 15.5915 128.301 15.4518C128.542 15.3121 128.809 15.241 129.101 15.241C129.393 15.241 129.66 15.3121 129.899 15.4518C130.135 15.5915 130.328 15.782 130.47 16.0233C130.612 16.2647 130.686 16.5314 130.686 16.8235V22.0256H133.498V16.036C133.498 15.3604 133.333 14.7482 133.005 14.1996C132.677 13.6509 132.238 13.2115 131.689 12.8838V12.8863Z" fill="#505263"/><path d="M143.854 16.1072C143.673 15.4061 143.369 14.7787 142.939 14.2173C142.513 13.6585 141.987 13.214 141.364 12.8863C140.742 12.5587 140.056 12.3936 139.307 12.3936C138.664 12.3936 138.057 12.5206 137.488 12.7771C136.919 13.0337 136.421 13.3893 135.992 13.8414C135.565 14.2935 135.228 14.8193 134.984 15.4163C134.74 16.0132 134.618 16.6507 134.618 17.334C134.618 18.2408 134.829 19.0689 135.25 19.8182C135.672 20.5676 136.239 21.1645 136.947 21.609C137.656 22.0535 138.443 22.2745 139.304 22.2745C140.242 22.2745 141.088 22.0103 141.844 21.482C142.601 20.9537 143.168 20.2755 143.549 19.4423L140.681 18.7768C140.506 18.9902 140.303 19.1578 140.066 19.2823C139.83 19.4067 139.576 19.4677 139.302 19.4601C139.015 19.455 138.763 19.3966 138.547 19.2924C138.332 19.1858 138.151 19.0435 138.004 18.8657C137.857 18.6879 137.74 18.4898 137.653 18.2713H143.905C144.049 17.5271 144.029 16.8057 143.849 16.1072H143.854ZM137.557 16.2088C137.651 15.9395 137.783 15.7033 137.956 15.4975C138.128 15.2918 138.329 15.1292 138.565 15.0098C138.799 14.8905 139.048 14.832 139.309 14.832C139.571 14.832 139.83 14.8905 140.064 15.0098C140.298 15.1292 140.503 15.2918 140.679 15.4975C140.854 15.7033 140.986 15.9421 141.072 16.2088H137.557Z" fill="#505263"/><path d="M25.5639 3.47715C22.1627 0.0759745 16.6456 0.0759745 13.2444 3.47715C12.678 4.04359 12.2081 4.66592 11.8322 5.32888C10.5139 5.13329 9.12696 5.54479 8.11093 6.55828C7.35398 7.31523 6.93486 8.28046 6.85104 9.26856C6.76722 10.2465 7.01361 11.2473 7.59021 12.0906C8.65959 11.6867 9.80517 11.5419 10.9279 11.6613C11.0142 11.6715 11.1006 11.6816 11.187 11.6943C8.90851 13.9753 8.93391 20.1071 8.93391 20.1071C8.93391 20.1071 15.0632 20.1325 17.3442 17.8566C17.3569 17.9404 17.367 18.0242 17.3772 18.1106H17.3823C17.4991 19.2333 17.3569 20.3789 16.953 21.4483C17.7963 22.0249 18.7971 22.2713 19.775 22.1875C20.7631 22.1036 21.7283 21.6845 22.4853 20.9276C23.4988 19.9141 23.9077 18.5246 23.7147 17.2063C24.3777 16.8279 25 16.358 25.5664 15.7941C28.9676 12.3929 28.9676 6.87579 25.5664 3.47461L25.5639 3.47715ZM15.2968 15.7966C14.7304 16.363 13.8109 16.363 13.2444 15.7966C12.678 15.2301 12.678 14.3106 13.2444 13.7442C13.8109 13.1778 14.7304 13.1778 15.2968 13.7442C15.8633 14.3106 15.8633 15.2301 15.2968 15.7966ZM23.5115 13.7417C23.1559 14.0973 22.7647 14.397 22.3507 14.6408C21.5404 15.1184 20.6386 15.3826 19.7293 15.4308C19.4931 14.7755 19.1883 14.1379 18.8149 13.5308C18.4084 12.8755 17.9208 12.2557 17.3518 11.6867C16.7828 11.1177 16.163 10.63 15.5077 10.2236C14.9006 9.8477 14.2656 9.54289 13.6077 9.3092C13.6585 8.39731 13.9227 7.49812 14.3976 6.68783C14.6415 6.27379 14.9412 5.88262 15.2968 5.52701C17.5651 3.25871 21.2432 3.25871 23.5115 5.52701C25.7798 7.79531 25.7798 11.4734 23.5115 13.7417Z" fill="#FF5E31"/><path d="M15.2971 24.0087C12.4623 26.8434 7.86475 26.8434 5.03001 24.0087C2.19527 21.1739 2.19527 16.5764 5.03001 13.7416C5.06557 13.7061 5.10113 13.6756 5.13416 13.6426C4.54993 12.7637 4.18162 11.7832 4.0216 10.7773C3.65836 11.0542 3.30783 11.3565 2.97762 11.6892C-0.99254 15.6594 -0.99254 22.0934 2.97762 26.0636C6.94778 30.0338 13.3818 30.0338 17.352 26.0636C17.6847 25.7308 17.987 25.3829 18.2639 25.0196C17.258 24.8596 16.2775 24.4913 15.3987 23.9071C15.3656 23.9426 15.3326 23.9782 15.2996 24.0112L15.2971 24.0087Z" fill="#6AD6CF"/></svg>