<svg width="654" height="654" viewBox="0 0 654 654" fill="none" xmlns="http://www.w3.org/2000/svg">
<rect width="654" height="654" fill="url(#paint0_radial_162_12)"/>
<path fill-rule="evenodd" clip-rule="evenodd" d="M332.641 302.714C333.594 301.762 335.138 301.762 336.091 302.714L340.463 307.087L344.836 302.714C345.789 301.762 347.333 301.762 348.286 302.714C349.238 303.667 349.238 305.211 348.286 306.164L343.913 310.537L348.286 314.909C349.238 315.862 349.238 317.406 348.286 318.359C347.333 319.311 345.789 319.311 344.836 318.359L340.463 313.986L336.091 318.359C335.138 319.311 333.594 319.311 332.641 318.359C331.689 317.406 331.689 315.862 332.641 314.909L337.014 310.537L332.641 306.164C331.689 305.211 331.689 303.667 332.641 302.714ZM313.046 303.22L324.61 303.22C325.957 303.22 327.049 304.311 327.049 305.659C327.049 307.006 325.957 308.098 324.61 308.098H313.146C311.057 308.098 309.637 308.099 308.539 308.189C307.47 308.276 306.923 308.435 306.542 308.629C305.624 309.097 304.877 309.843 304.41 310.761C304.215 311.142 304.057 311.689 303.97 312.759C303.88 313.856 303.878 315.277 303.878 317.366V337.853C303.878 339.943 303.88 341.363 303.97 342.461C304.057 343.53 304.215 344.077 304.41 344.458C304.847 345.316 305.527 346.024 306.364 346.495C306.575 346.165 306.8 345.915 306.948 345.754C307.318 345.354 307.822 344.896 308.342 344.423L329.094 325.558C329.486 325.201 329.875 324.848 330.23 324.572C330.625 324.264 331.115 323.939 331.741 323.736C332.62 323.45 333.563 323.42 334.459 323.65C335.096 323.813 335.605 324.106 336.019 324.389C336.391 324.643 336.801 324.971 337.215 325.302L344.092 330.804C344.145 330.846 344.198 330.888 344.25 330.93C345.017 331.542 345.691 332.081 346.219 332.753C346.877 333.591 347.343 334.562 347.587 335.599C347.782 336.432 347.782 337.295 347.781 338.276C347.781 338.342 347.78 338.41 347.78 338.478V338.564C347.78 338.97 347.78 339.358 347.779 339.731C347.78 339.755 347.78 339.78 347.78 339.805C347.78 339.918 347.781 340.03 347.781 340.14C347.782 342.08 347.782 343.521 347.448 344.769C347.053 346.242 346.328 347.574 345.355 348.681C345.006 349.078 344.626 349.446 344.218 349.782C343.161 350.651 341.916 351.301 340.549 351.667C339.302 352.002 337.861 352.001 335.921 352C335.811 352 335.699 352 335.585 352H334.493C334.444 352 334.394 352 334.345 352H313.046C312.987 352 312.928 352 312.87 352L311.272 352C310.648 352 310.042 352 309.534 351.967C309.037 351.951 308.573 351.927 308.142 351.892C306.771 351.78 305.511 351.54 304.327 350.936C302.491 350.001 300.999 348.509 300.063 346.673C299.46 345.489 299.22 344.229 299.108 342.858C299 341.538 299 339.918 299 337.954V317.265C299 315.302 299 313.681 299.108 312.361C299.22 310.99 299.46 309.73 300.063 308.546C300.999 306.711 302.491 305.218 304.327 304.283C305.511 303.68 306.771 303.439 308.142 303.327C309.462 303.219 311.082 303.219 313.046 303.22ZM341.903 345.203C342.145 344.885 342.349 344.536 342.509 344.162C342.652 343.828 342.77 343.35 342.835 342.428C342.901 341.484 342.902 340.267 342.902 338.478C342.902 337.181 342.887 336.924 342.838 336.714C342.757 336.368 342.601 336.044 342.382 335.765C342.249 335.595 342.057 335.423 341.045 334.613L334.222 329.155C333.732 328.763 333.469 328.554 333.269 328.418C333.262 328.413 333.255 328.408 333.248 328.404C333.242 328.409 333.236 328.414 333.229 328.419C333.038 328.568 332.788 328.792 332.324 329.215L312.626 347.122C312.795 347.122 312.968 347.122 313.146 347.122H334.258C336.048 347.122 337.264 347.12 338.209 347.054C339.131 346.989 339.609 346.872 339.943 346.729C340.323 346.566 340.677 346.358 340.999 346.11C341.339 345.848 341.643 345.543 341.903 345.203ZM314.854 316.634C313.507 316.634 312.415 317.726 312.415 319.073C312.415 320.42 313.507 321.512 314.854 321.512C316.201 321.512 317.293 320.42 317.293 319.073C317.293 317.726 316.201 316.634 314.854 316.634ZM307.537 319.073C307.537 315.032 310.813 311.756 314.854 311.756C318.895 311.756 322.171 315.032 322.171 319.073C322.171 323.114 318.895 326.39 314.854 326.39C310.813 326.39 307.537 323.114 307.537 319.073Z" fill="white"/>
<defs>
<radialGradient id="paint0_radial_162_12" cx="0" cy="0" r="1" gradientUnits="userSpaceOnUse" gradientTransform="translate(327 327) rotate(90) scale(327)">
<stop stop-color="#CECECE"/>
<stop offset="1" stop-color="#EAEAEA"/>
</radialGradient>
</defs>
</svg>
