<svg width="552" height="109" viewBox="0 0 552 109" fill="none" xmlns="http://www.w3.org/2000/svg">
    <path d="M56.7221 87.5954C46.2035 98.1202 29.152 98.1202 18.6745 87.5954C8.15597 77.0706 8.15597 60.0088 18.6745 49.5251C19.5374 48.6617 20.4824 47.8395 21.4274 47.0994C19.2908 43.9338 17.9349 40.4392 17.3186 36.8213C15.0999 38.2602 13.0044 39.9459 11.0321 41.8781C-3.67738 56.5965 -3.67738 80.4829 11.0321 95.2012C25.7417 109.92 49.6138 109.92 64.3234 95.2012C66.2545 93.2689 67.9391 91.1311 69.3772 88.911C65.7614 88.2943 62.269 86.9376 59.1052 84.7997C58.3656 85.7453 57.5849 86.6909 56.681 87.5543L56.7221 87.5954Z" fill="url(#paint0_radial_156_8)"/>
    <path d="M53.5173 7.75468C51.997 8.82361 50.5178 10.057 49.1208 11.4137C47.6006 12.9349 46.2858 14.5383 45.1353 16.2239C44.8066 16.2239 44.519 16.2239 44.1903 16.1828C43.9437 16.1828 43.6972 16.1417 43.4507 16.1417C42.2591 16.1417 41.0676 16.265 39.9171 16.5528C39.8349 16.5528 39.7528 16.5939 39.6706 16.635C39.2186 16.7583 38.7666 16.8817 38.3147 17.005C38.1503 17.0461 38.0271 17.1284 37.9038 17.1695C37.534 17.2928 37.1642 17.4573 36.7944 17.6217C36.6301 17.7039 36.4657 17.7862 36.2603 17.8684C35.9316 18.0328 35.6029 18.1973 35.2742 18.4029C35.1098 18.5262 34.9044 18.6084 34.74 18.7318C34.4113 18.9373 34.0826 19.184 33.795 19.3896C33.6306 19.5129 33.5074 19.5951 33.343 19.7185C32.891 20.0885 32.4391 20.4585 32.0693 20.8696C32.0693 20.8696 31.9871 20.9518 31.9871 20.9929C31.6584 21.3218 31.3297 21.6919 31.0421 22.0619C30.8366 22.3085 30.6723 22.5552 30.5079 22.7608C30.3847 22.9252 30.2203 23.1308 30.0971 23.2953C29.8916 23.583 29.7273 23.8708 29.5629 24.1586C29.4807 24.3231 29.3575 24.4875 29.2753 24.6109C29.1109 24.9398 28.9466 25.2275 28.8233 25.5564C28.7412 25.7209 28.659 25.8854 28.6179 26.0498C28.4946 26.3787 28.3714 26.7076 28.2481 27.0365C28.207 27.201 28.1248 27.3654 28.0837 27.5299C27.9605 27.8999 27.8783 28.2699 27.7961 28.681C27.7961 28.8043 27.714 28.9277 27.714 29.0921C27.5907 29.5855 27.5496 30.12 27.4674 30.6544C27.4263 31.23 27.3853 31.7645 27.3853 32.2989C27.3853 35.9168 28.5768 39.5347 31.001 42.4949C34.1648 41.6726 37.4107 41.4259 40.6156 41.7959C40.9443 41.7959 41.273 41.8782 41.5606 41.9193C30.1381 53.3486 33.9593 72.3837 33.9593 72.3837C33.9593 72.3837 52.9831 76.2072 64.4056 64.7779C64.4467 65.1068 64.4878 65.4357 64.5289 65.7235C64.8576 68.9303 64.611 72.2193 63.8304 75.3438C66.7887 77.7695 70.4045 78.9618 74.0202 78.9618C74.5544 78.9618 75.1296 78.9618 75.6637 78.8795C76.1979 78.8384 76.6909 78.7562 77.2251 78.6329C77.3483 78.6329 77.5127 78.5506 77.636 78.5506C78.0058 78.4684 78.3755 78.3862 78.7453 78.2628C78.9097 78.2217 79.074 78.1395 79.2384 78.0984C79.5671 77.9751 79.8958 77.8517 80.2245 77.7284C80.3889 77.6462 80.5532 77.5639 80.7176 77.5228C81.0463 77.3584 81.3339 77.235 81.6626 77.0706C81.8269 76.9884 81.9913 76.865 82.1556 76.7828C82.4433 76.6183 82.7309 76.4539 83.0185 76.2483C83.2239 76.125 83.3883 75.9605 83.5937 75.8372C83.8403 75.6727 84.0868 75.5083 84.2922 75.3027C84.662 75.0149 85.0318 74.6861 85.3605 74.3571C85.3605 74.3571 85.4427 74.2749 85.4838 74.2749C85.8947 73.8638 86.2645 73.4116 86.6342 72.9593C86.7575 72.7949 86.8397 72.6715 86.963 72.5071C87.2095 72.1782 87.4149 71.8904 87.6204 71.5615C87.7436 71.397 87.8258 71.2326 87.9491 71.027C88.1545 70.6981 88.3189 70.3692 88.4832 70.0403C88.5654 69.8759 88.6476 69.7114 88.7297 69.5059C88.8941 69.1358 89.0584 68.7658 89.1817 68.3958C89.2228 68.2314 89.305 68.108 89.3461 67.9847C89.5104 67.5324 89.6337 67.0802 89.7159 66.628C89.7159 66.5457 89.7569 66.4635 89.798 66.3813C90.0446 65.2301 90.2089 64.079 90.2089 62.8456C90.2089 62.5989 90.2089 62.3523 90.1678 62.1056C90.1678 61.7767 90.1678 61.4889 90.1267 61.16C91.8113 60.0088 93.4549 58.6932 94.934 57.1721C96.2899 55.8153 97.5226 54.3353 98.5909 52.773C107.384 40.1514 106.151 22.7197 94.934 11.4548C83.6759 0.189955 66.2546 -1.00231 53.6405 7.79579L53.5173 7.75468ZM56.7632 57.131C54.6677 59.2277 51.2574 59.2277 49.1619 57.131C47.0664 55.0342 47.0664 51.6219 49.1619 49.5251C51.2574 47.4284 54.6677 47.4284 56.7632 49.5251C58.8587 51.6219 58.8587 55.0342 56.7632 57.131ZM91.647 43.0293C90.6198 45.3727 89.1406 47.5928 87.2095 49.484C86.5932 50.1007 85.9357 50.6763 85.2373 51.2107C81.7037 54.0064 77.4716 55.5276 73.1984 55.7331C72.1712 52.8141 70.7332 50.0185 68.9664 47.3873C68.3501 46.4828 67.6926 45.5783 66.9531 44.7149C66.1724 43.7282 65.3095 42.7826 64.4056 41.8782C63.5017 40.9737 62.5566 40.1103 61.5705 39.3292C60.7077 38.6303 59.8037 37.9314 58.8998 37.3147C56.2702 35.5468 53.4762 34.1079 50.5589 33.0801C50.8055 28.8043 52.3257 24.5697 55.0786 21.0341C55.6127 20.3351 56.188 19.6773 56.8043 19.0607C58.7355 17.1284 60.9131 15.6483 63.2551 14.6205C71.144 11.0848 80.7587 12.5649 87.2506 19.0607C93.7425 25.5564 95.2216 35.1357 91.6881 43.0704L91.647 43.0293Z" fill="url(#paint1_radial_156_8)"/>
    <path d="M178.364 27.322V36.5723H185.062C184.322 37.8468 183.5 38.9157 182.596 39.8613C181.692 40.7658 180.747 41.5469 179.72 42.1225C178.693 42.6981 177.666 43.1504 176.556 43.4381C175.488 43.7259 174.379 43.8904 173.31 43.8904C171.379 43.8904 169.571 43.5204 167.928 42.7392C166.243 41.9581 164.764 40.8892 163.49 39.5324C162.217 38.1757 161.231 36.5723 160.491 34.7634C159.751 32.9544 159.423 30.981 159.423 28.8843C159.423 26.6231 159.792 24.5263 160.573 22.6762C161.354 20.8262 162.381 19.1817 163.696 17.825C165.011 16.4682 166.49 15.4404 168.133 14.7004C169.777 13.9604 171.503 13.5904 173.269 13.5904C175.036 13.5904 176.762 13.9604 178.488 14.7415C180.213 15.5226 181.775 16.7149 183.213 18.3594L192.745 13.2615C190.033 9.64355 187.034 7.05345 183.665 5.45006C180.295 3.84667 176.885 3.02441 173.434 3.02441C170.27 3.02441 167.229 3.64111 164.271 4.87449C161.313 6.10786 158.683 7.8757 156.341 10.1369C153.999 12.4392 152.15 15.1526 150.794 18.2772C149.438 21.4018 148.74 24.8963 148.74 28.6787C148.74 32.2144 149.356 35.5445 150.589 38.6691C151.821 41.7936 153.547 44.5482 155.725 46.9327C157.943 49.3172 160.532 51.1673 163.49 52.524C166.449 53.8807 169.695 54.5385 173.187 54.5385C176.68 54.5385 180.008 53.8396 183.007 52.4007C186.048 50.9617 188.677 49.0294 190.937 46.4805C193.197 43.9726 194.923 41.0536 196.114 37.8057C197.306 34.5167 197.799 31.0221 197.635 27.322H178.364Z" fill="#101642"/>
    <path d="M223.931 17.085C222.246 17.085 220.644 17.3728 219.124 17.9483C217.603 18.5239 216.247 19.305 215.056 20.3329V18.1128H204.373V53.6752H215.056V33.9412C215.056 32.8311 215.302 31.8033 215.837 30.8988C216.371 29.9943 217.11 29.2543 218.014 28.7198C218.918 28.1854 219.945 27.9387 221.055 27.9387C221.918 27.9387 222.781 28.1443 223.602 28.5143L227.793 17.7017C226.478 17.3316 225.164 17.1261 223.89 17.1261L223.931 17.085Z" fill="#101642"/>
    <path d="M254.542 19.634C251.871 17.9484 248.872 17.1261 245.626 17.1261C243.201 17.1261 240.9 17.6194 238.723 18.565C236.586 19.5517 234.696 20.8673 233.053 22.5941C231.45 24.3208 230.176 26.2942 229.231 28.5554C228.286 30.8166 227.834 33.2423 227.834 35.8735C227.834 39.3269 228.615 42.4515 230.218 45.2882C231.82 48.125 233.957 50.3862 236.627 52.0718C239.298 53.7575 242.297 54.5797 245.543 54.5797C248.009 54.5797 250.31 54.0864 252.446 53.1408C254.583 52.1952 256.473 50.8385 258.075 49.1117C259.678 47.385 260.951 45.4116 261.896 43.1504C262.8 40.8892 263.293 38.4636 263.293 35.9146C263.293 32.4611 262.513 29.2954 260.91 26.4587C259.308 23.6219 257.171 21.3607 254.501 19.6751L254.542 19.634ZM251.789 39.8614C251.172 41.0948 250.31 42.0403 249.241 42.7804C248.173 43.5204 246.94 43.8904 245.585 43.8904C244.311 43.8904 243.119 43.5204 242.051 42.8215C240.983 42.1226 240.12 41.1359 239.462 39.9436C238.805 38.7513 238.476 37.3535 238.476 35.8735C238.476 34.3934 238.805 33.0778 239.421 31.8444C240.038 30.611 240.9 29.6243 241.969 28.8843C243.037 28.1443 244.229 27.7743 245.585 27.7743C246.94 27.7743 248.05 28.1443 249.118 28.8432C250.186 29.5832 251.049 30.5288 251.707 31.7622C252.364 32.9956 252.693 34.3523 252.693 35.8323C252.693 37.3124 252.405 38.628 251.789 39.8203V39.8614Z" fill="#101642"/>
    <path d="M305.532 38.0524L298.917 18.0717H288.521L281.906 38.0524L275.25 18.0717H264.813L276.647 53.6341H287.124L293.698 33.6533L300.314 53.6341H310.75L322.624 18.0717H312.188L305.532 38.0524Z" fill="#101642"/>
    <path d="M386.516 10.5069C384.257 8.12233 381.668 6.27227 378.71 4.95666C375.751 3.59995 372.588 2.94214 369.177 2.94214C365.767 2.94214 362.644 3.59995 359.686 4.95666C356.728 6.31338 354.139 8.16344 351.879 10.5069C349.619 12.8914 347.853 15.6048 346.579 18.7294C345.305 21.854 344.648 25.1841 344.648 28.7198C344.648 32.2555 345.305 35.6267 346.579 38.7101C347.853 41.8347 349.619 44.5892 351.879 46.9327C354.139 49.3172 356.728 51.1673 359.686 52.4829C362.644 53.7985 365.808 54.4974 369.177 54.4974C372.547 54.4974 375.751 53.8396 378.71 52.4829C381.668 51.1261 384.257 49.2761 386.516 46.9327C388.776 44.5481 390.543 41.8347 391.776 38.7101C393.049 35.5856 393.666 32.2555 393.666 28.7198C393.666 25.1841 393.049 21.8128 391.776 18.7294C390.502 15.6048 388.735 12.8503 386.516 10.5069ZM381.956 34.5989C381.216 36.4078 380.23 38.0112 378.956 39.409C377.683 40.8069 376.203 41.8758 374.519 42.6981C372.834 43.4792 371.067 43.8903 369.177 43.8903C367.287 43.8903 365.52 43.4792 363.836 42.6981C362.151 41.9169 360.672 40.8069 359.398 39.409C358.125 38.0112 357.138 36.4078 356.399 34.5989C355.659 32.7899 355.331 30.8165 355.331 28.7198C355.331 26.623 355.7 24.6907 356.399 22.8407C357.138 21.0317 358.125 19.4283 359.398 18.0305C360.672 16.6327 362.151 15.5637 363.836 14.7415C365.52 13.9603 367.287 13.5492 369.177 13.5492C371.067 13.5492 372.834 13.9603 374.519 14.7415C376.203 15.5226 377.641 16.6327 378.956 18.0305C380.23 19.4283 381.216 21.0317 381.956 22.8407C382.695 24.6496 383.024 26.623 383.024 28.7198C383.024 30.8165 382.654 32.7488 381.956 34.5989Z" fill="#101642"/>
    <path d="M426.947 18.9762C424.852 17.7428 422.551 17.1261 420.003 17.1261C418.319 17.1261 416.716 17.4139 415.196 17.9895C413.676 18.565 412.32 19.3462 411.128 20.374V18.1539H400.445V53.7164H411.128V33.9823C411.128 32.8722 411.375 31.8444 411.909 30.9399C412.443 30.0355 413.183 29.2954 414.087 28.761C414.991 28.2265 416.018 27.9798 417.127 27.9798C418.236 27.9798 419.264 28.2265 420.127 28.761C420.989 29.2954 421.77 30.0355 422.304 30.9399C422.838 31.8444 423.126 32.8722 423.126 33.9823V53.7164H433.768V31.0222C433.768 28.4732 433.151 26.1298 431.919 24.0741C430.686 22.0185 429.002 20.3329 426.947 19.0995V18.9762Z" fill="#101642"/>
    <path d="M451.518 0.311035H440.876V53.6341H451.518V0.311035Z" fill="#101642"/>
    <path d="M465.447 3.72339C463.927 3.72339 462.653 4.25786 461.626 5.28567C460.598 6.31349 460.064 7.58799 460.064 9.06804C460.064 10.5481 460.598 11.8637 461.626 12.8915C462.653 13.9193 463.968 14.4127 465.488 14.4127C467.008 14.4127 468.282 13.9193 469.268 12.8915C470.254 11.8637 470.788 10.5892 470.788 9.06804C470.788 7.54688 470.254 6.31349 469.227 5.28567C468.2 4.25786 466.926 3.72339 465.447 3.72339Z" fill="#101642"/>
    <path d="M470.706 18.0717H460.064V53.6341H470.706V18.0717Z" fill="#101642"/>
    <path d="M505.425 18.9762C503.33 17.7428 501.029 17.1261 498.482 17.1261C496.797 17.1261 495.194 17.4139 493.674 17.9895C492.154 18.565 490.798 19.3462 489.606 20.374V18.1539H478.924V53.7164H489.606V33.9823C489.606 32.8722 489.853 31.8444 490.387 30.9399C490.921 30.0355 491.661 29.2954 492.565 28.761C493.469 28.2265 494.496 27.9798 495.605 27.9798C496.715 27.9798 497.742 28.2265 498.605 28.761C499.468 29.2954 500.248 30.0355 500.782 30.9399C501.317 31.8444 501.604 32.8722 501.604 33.9823V53.7164H512.246V31.0222C512.246 28.4732 511.63 26.1298 510.397 24.0741C509.164 22.0185 507.48 20.3329 505.425 19.0995V18.9762Z" fill="#101642"/>
    <path d="M551.526 31.1866C550.828 28.5143 549.677 26.1298 548.075 24.033C546.472 21.8952 544.459 20.2095 542.117 18.9762C539.775 17.7428 537.145 17.1261 534.31 17.1261C531.886 17.1261 529.585 17.6194 527.407 18.565C525.23 19.5106 523.381 20.8673 521.737 22.5941C520.135 24.3208 518.861 26.2942 517.916 28.5554C516.971 30.8166 516.519 33.2422 516.519 35.8323C516.519 39.2858 517.3 42.4104 518.902 45.2471C520.505 48.0839 522.641 50.3451 525.312 52.0307C527.983 53.7163 530.982 54.5386 534.228 54.5386C537.762 54.5386 541.008 53.5519 543.843 51.5374C546.719 49.5229 548.855 46.9739 550.293 43.8082L539.405 41.3003C538.748 42.1226 537.967 42.7393 537.063 43.2326C536.159 43.726 535.214 43.9315 534.187 43.8904C533.078 43.8904 532.133 43.6437 531.311 43.2326C530.489 42.8215 529.79 42.287 529.256 41.6292C528.722 40.9714 528.27 40.1903 527.942 39.368H551.649C552.183 36.5313 552.101 33.8178 551.444 31.1455L551.526 31.1866ZM527.654 31.5566C528.024 30.5288 528.517 29.6243 529.174 28.8432C529.832 28.0621 530.612 27.4454 531.475 26.9931C532.379 26.5409 533.324 26.3353 534.31 26.3353C535.296 26.3353 536.282 26.5409 537.186 26.9931C538.09 27.4454 538.83 28.0621 539.528 28.8432C540.186 29.6243 540.679 30.5288 541.008 31.5566H527.695H527.654Z" fill="#101642"/>
    <path d="M154.574 100.667L148.74 77.8495H152.232L156.505 94.5823L160.737 77.8495H163.819L168.092 94.5823L172.365 77.8495H175.858L170.064 100.667H166.161L162.299 85.5787L158.437 100.667H154.574Z" fill="#F18700"/>
    <path d="M183.747 101.119C182.268 101.119 180.871 100.749 179.638 99.9682C178.405 99.187 177.419 98.1592 176.68 96.8847C175.94 95.5691 175.57 94.1302 175.57 92.5679C175.57 91.3756 175.776 90.2656 176.187 89.2378C176.598 88.21 177.214 87.3055 177.953 86.4832C178.693 85.7021 179.556 85.0854 180.542 84.6331C181.528 84.1809 182.596 83.9753 183.706 83.9753C184.938 83.9753 186.089 84.222 187.157 84.7565C188.184 85.2498 189.088 85.9899 189.828 86.8944C190.567 87.7988 191.102 88.8266 191.471 90.0189C191.8 91.2112 191.923 92.4445 191.8 93.7602H179.227C179.35 94.5002 179.638 95.1991 180.049 95.7747C180.46 96.3914 180.994 96.8436 181.61 97.2136C182.268 97.5425 182.966 97.7481 183.747 97.7481C184.569 97.7481 185.308 97.5425 186.007 97.1314C186.705 96.7203 187.239 96.1447 187.691 95.4047L191.143 96.1858C190.485 97.6247 189.499 98.817 188.184 99.7215C186.87 100.626 185.39 101.078 183.788 101.078L183.747 101.119ZM179.104 91.1289H188.349C188.225 90.3478 187.979 89.6489 187.527 88.9911C187.075 88.3744 186.541 87.8399 185.883 87.4699C185.226 87.0999 184.528 86.8944 183.706 86.8944C182.884 86.8944 182.227 87.0588 181.569 87.4288C180.912 87.7988 180.378 88.2922 179.926 88.95C179.515 89.5667 179.227 90.3067 179.063 91.0878L179.104 91.1289Z" fill="#F18700"/>
    <path d="M202.729 83.9341C204.332 83.9341 205.77 84.3041 207.044 85.0853C208.317 85.8664 209.386 86.8942 210.125 88.1687C210.906 89.4843 211.276 90.9233 211.276 92.4856C211.276 93.6778 211.07 94.7879 210.618 95.8157C210.166 96.8435 209.55 97.748 208.769 98.5702C207.989 99.3514 207.085 99.9681 206.016 100.42C204.989 100.873 203.88 101.078 202.688 101.078C201.497 101.078 200.552 100.831 199.689 100.297C198.826 99.7625 198.127 99.1047 197.593 98.2824V100.667H194.224V76.205H197.593V86.7298C198.127 85.9075 198.826 85.2086 199.689 84.6742C200.552 84.1397 201.538 83.893 202.688 83.893L202.729 83.9341ZM202.729 97.8302C203.674 97.8302 204.537 97.5835 205.318 97.1313C206.099 96.6791 206.715 96.0212 207.167 95.199C207.619 94.3767 207.865 93.5134 207.865 92.5267C207.865 91.54 207.619 90.6355 207.167 89.8544C206.715 89.0321 206.099 88.4154 205.277 87.9221C204.496 87.4698 203.633 87.2231 202.688 87.2231C201.743 87.2231 200.921 87.4698 200.182 87.9221C199.483 88.4154 198.908 89.0321 198.497 89.8544C198.086 90.6766 197.881 91.54 197.881 92.5267C197.881 93.5134 198.086 94.3767 198.497 95.199C198.908 96.0212 199.442 96.6379 200.182 97.1313C200.88 97.6246 201.743 97.8302 202.688 97.8302H202.729Z" fill="#F18700"/>
    <path d="M222.041 100.667V77.8495H229.56C231.121 77.8495 232.601 78.1373 233.998 78.754C235.354 79.3295 236.586 80.1518 237.613 81.2207C238.641 82.2485 239.462 83.4819 240.079 84.8386C240.654 86.1954 240.983 87.6754 240.983 89.2788C240.983 90.8822 240.695 92.3211 240.079 93.719C239.503 95.0757 238.682 96.3091 237.613 97.3369C236.586 98.3647 235.354 99.1869 233.998 99.8036C232.601 100.379 231.121 100.708 229.56 100.708H222.041V100.667ZM225.41 97.2958H229.56C230.67 97.2958 231.697 97.0902 232.642 96.6791C233.587 96.2679 234.45 95.6924 235.189 94.9523C235.929 94.2123 236.504 93.349 236.915 92.4034C237.326 91.4578 237.531 90.3888 237.531 89.2788C237.531 88.1688 237.326 87.1409 236.915 86.1542C236.504 85.1675 235.929 84.3453 235.189 83.6052C234.45 82.8652 233.587 82.2896 232.642 81.8785C231.697 81.4674 230.628 81.2618 229.56 81.2618H225.41V97.2958Z" fill="#F18700"/>
    <path d="M250.679 101.119C249.2 101.119 247.803 100.749 246.57 99.9682C245.338 99.187 244.352 98.1592 243.612 96.8847C242.872 95.5691 242.503 94.1302 242.503 92.5679C242.503 91.3756 242.708 90.2656 243.16 89.2378C243.571 88.21 244.146 87.3055 244.927 86.4832C245.666 85.7021 246.529 85.0854 247.515 84.6331C248.502 84.1809 249.57 83.9753 250.679 83.9753C251.912 83.9753 253.062 84.222 254.131 84.7565C255.158 85.2498 256.062 85.9899 256.801 86.8944C257.541 87.7988 258.075 88.8266 258.445 90.0189C258.774 91.2112 258.897 92.4445 258.774 93.7602H246.201C246.324 94.5002 246.611 95.1991 247.022 95.7747C247.433 96.3914 247.967 96.8436 248.584 97.2136C249.2 97.5425 249.94 97.7481 250.72 97.7481C251.542 97.7481 252.282 97.5425 252.98 97.1314C253.679 96.7203 254.213 96.1447 254.665 95.4047L258.116 96.1858C257.459 97.6247 256.473 98.817 255.158 99.7215C253.843 100.626 252.364 101.078 250.761 101.078L250.679 101.119ZM246.077 91.1289H255.322C255.199 90.3478 254.952 89.6489 254.5 88.9911C254.048 88.3333 253.514 87.8399 252.857 87.4699C252.199 87.0999 251.501 86.8944 250.679 86.8944C249.857 86.8944 249.2 87.0588 248.543 87.4288C247.885 87.7988 247.351 88.2922 246.899 88.95C246.447 89.6078 246.201 90.3067 246.036 91.0878L246.077 91.1289Z" fill="#F18700"/>
    <path d="M270.032 100.667H265.676L259.719 84.3453H263.334L267.813 96.7614L272.333 84.3453H275.948L270.032 100.667Z" fill="#F18700"/>
    <path d="M284.988 101.119C283.509 101.119 282.112 100.749 280.879 99.9682C279.646 99.187 278.66 98.1592 277.921 96.8847C277.181 95.5691 276.811 94.1302 276.811 92.5679C276.811 91.3756 277.017 90.2656 277.469 89.2378C277.88 88.21 278.455 87.3055 279.235 86.4832C279.975 85.7021 280.838 85.0854 281.824 84.6331C282.81 84.1809 283.878 83.9753 284.988 83.9753C286.22 83.9753 287.371 84.222 288.439 84.7565C289.466 85.2498 290.37 85.9899 291.11 86.8944C291.85 87.7988 292.384 88.8266 292.753 90.0189C293.082 91.2112 293.205 92.4445 293.082 93.7602H280.509C280.632 94.5002 280.92 95.1991 281.331 95.7747C281.742 96.3914 282.276 96.8436 282.892 97.2136C283.509 97.5425 284.248 97.7481 285.029 97.7481C285.851 97.7481 286.59 97.5425 287.289 97.1314C287.987 96.7203 288.521 96.1447 288.973 95.4047L292.425 96.1858C291.767 97.6247 290.781 98.817 289.466 99.7215C288.152 100.626 286.672 101.078 285.07 101.078L284.988 101.119ZM280.386 91.1289H289.631C289.507 90.3478 289.261 89.6489 288.809 88.9911C288.357 88.3744 287.823 87.8399 287.165 87.4699C286.508 87.0999 285.81 86.8944 284.988 86.8944C284.166 86.8944 283.509 87.0588 282.851 87.4288C282.194 87.7988 281.66 88.2922 281.208 88.95C280.756 89.6078 280.509 90.3067 280.345 91.0878L280.386 91.1289Z" fill="#F18700"/>
    <path d="M295.547 100.667V76.205H298.917V100.667H295.547Z" fill="#F18700"/>
    <path d="M309.764 101.119C308.285 101.119 306.888 100.749 305.655 99.9682C304.422 99.187 303.436 98.1592 302.697 96.8847C301.957 95.5691 301.587 94.1302 301.587 92.5679C301.587 91.3756 301.793 90.2656 302.245 89.2378C302.656 88.21 303.231 87.3055 304.012 86.4832C304.751 85.7021 305.614 85.0854 306.6 84.6331C307.586 84.1809 308.655 83.9753 309.764 83.9753C311.284 83.9753 312.64 84.3454 313.873 85.1265C315.105 85.9076 316.091 86.9355 316.831 88.2511C317.571 89.5667 317.94 91.0056 317.94 92.5679C317.94 93.7601 317.735 94.8702 317.283 95.898C316.872 96.9258 316.256 97.8303 315.516 98.6114C314.777 99.3926 313.914 100.009 312.928 100.462C311.942 100.914 310.873 101.119 309.764 101.119ZM309.764 97.707C310.668 97.707 311.49 97.4603 312.188 97.0081C312.887 96.5147 313.462 95.898 313.873 95.1169C314.284 94.3357 314.489 93.4724 314.489 92.5679C314.489 91.6634 314.284 90.7589 313.832 89.9778C313.421 89.1967 312.846 88.5388 312.106 88.0866C311.407 87.5933 310.586 87.3877 309.723 87.3877C308.86 87.3877 308.038 87.6344 307.299 88.0866C306.559 88.5388 306.025 89.1967 305.573 89.9778C305.162 90.7589 304.957 91.6223 304.957 92.5679C304.957 93.5135 305.162 94.4179 305.614 95.1991C306.066 95.9802 306.641 96.5969 307.34 97.0492C308.038 97.5014 308.86 97.7481 309.723 97.7481L309.764 97.707Z" fill="#F18700"/>
    <path d="M323.939 108.807H320.57V84.3864H323.939V86.771C324.473 85.9487 325.172 85.2498 326.035 84.7153C326.898 84.1809 327.884 83.9342 329.034 83.9342C330.185 83.9342 331.335 84.1398 332.362 84.592C333.39 85.0442 334.293 85.6609 335.074 86.4421C335.855 87.2232 336.471 88.1277 336.923 89.1555C337.375 90.1833 337.581 91.2934 337.581 92.4856C337.581 93.6779 337.375 94.7879 336.923 95.8158C336.471 96.8436 335.855 97.7892 335.074 98.5703C334.293 99.3514 333.39 99.9681 332.362 100.42C331.335 100.873 330.226 101.078 329.034 101.078C327.843 101.078 326.898 100.831 326.035 100.297C325.172 99.7626 324.473 99.1048 323.939 98.2825V108.807ZM328.993 87.2232C328.048 87.2232 327.226 87.4699 326.487 87.9221C325.788 88.4155 325.213 89.0322 324.802 89.8544C324.391 90.6356 324.186 91.54 324.186 92.5267C324.186 93.5134 324.391 94.3768 324.802 95.1991C325.213 96.0213 325.747 96.638 326.487 97.1314C327.185 97.6247 328.048 97.8303 328.993 97.8303C329.938 97.8303 330.801 97.5836 331.582 97.1314C332.362 96.6791 332.979 96.0213 333.472 95.1991C333.924 94.3768 334.17 93.5134 334.17 92.5267C334.17 91.54 333.924 90.6767 333.472 89.8544C333.02 89.0322 332.403 88.4155 331.623 87.9221C330.842 87.4288 329.979 87.2232 329.034 87.2232H328.993Z" fill="#F18700"/>
    <path d="M340.251 100.667V84.3864H343.62V86.1132C344.196 85.4554 344.894 84.9209 345.675 84.5098C346.497 84.1398 347.401 83.9342 348.346 83.9342C349.496 83.9342 350.564 84.222 351.55 84.7565C352.537 85.332 353.317 86.0721 353.892 86.9765C354.468 86.0721 355.248 85.2909 356.193 84.7565C357.138 84.1809 358.207 83.9342 359.398 83.9342C360.59 83.9342 361.699 84.222 362.685 84.7976C363.671 85.3731 364.452 86.1543 365.027 87.1821C365.603 88.1688 365.89 89.2788 365.89 90.4711V100.708H362.521V91.3756C362.521 90.6767 362.357 90.0189 361.987 89.4022C361.617 88.8266 361.165 88.3333 360.59 87.9632C360.015 87.5932 359.357 87.4288 358.659 87.4288C357.96 87.4288 357.303 87.5932 356.686 87.9632C356.111 88.2921 355.618 88.7855 355.289 89.3611C354.961 89.9778 354.755 90.6356 354.755 91.4167V100.749H351.386V91.4167C351.386 90.6356 351.222 89.9778 350.852 89.3611C350.523 88.7444 350.03 88.2921 349.455 87.9632C348.88 87.6343 348.222 87.4288 347.483 87.4288C346.743 87.4288 346.127 87.5932 345.552 87.9632C344.976 88.3333 344.483 88.8266 344.155 89.4022C343.826 90.0189 343.62 90.6767 343.62 91.3756V100.708H340.251V100.667Z" fill="#F18700"/>
    <path d="M375.998 101.119C374.478 101.119 373.122 100.749 371.889 99.9682C370.657 99.187 369.67 98.1592 368.931 96.8847C368.191 95.5691 367.822 94.1302 367.822 92.5679C367.822 91.3756 368.027 90.2656 368.438 89.2378C368.849 88.21 369.465 87.3055 370.205 86.4832C370.944 85.661 371.807 85.0854 372.793 84.6331C373.779 84.1809 374.848 83.9753 375.957 83.9753C377.19 83.9753 378.34 84.222 379.408 84.7565C380.436 85.2498 381.34 85.9899 382.079 86.8944C382.819 87.7988 383.353 88.8266 383.723 90.0189C384.051 91.2112 384.175 92.4445 384.051 93.7602H371.478C371.602 94.5002 371.889 95.1991 372.3 95.7747C372.711 96.3914 373.245 96.8436 373.861 97.2136C374.478 97.5425 375.217 97.7481 375.998 97.7481C376.82 97.7481 377.559 97.5425 378.258 97.1314C378.956 96.7203 379.491 96.1447 379.943 95.4047L383.394 96.1858C382.737 97.6247 381.75 98.817 380.436 99.7215C379.121 100.626 377.642 101.078 376.039 101.078L375.998 101.119ZM371.355 91.1289H380.6C380.477 90.3478 380.23 89.6489 379.778 88.9911C379.326 88.3744 378.792 87.8399 378.135 87.4699C377.477 87.0999 376.779 86.8944 375.998 86.8944C375.217 86.8944 374.519 87.0588 373.861 87.4288C373.204 87.7988 372.67 88.2922 372.218 88.95C371.766 89.6078 371.519 90.3067 371.355 91.0878V91.1289Z" fill="#F18700"/>
    <path d="M401.431 90.4711V100.708H398.021V91.3345C398.021 90.5945 397.857 89.9367 397.487 89.3611C397.158 88.7855 396.665 88.2922 396.09 87.9222C395.515 87.5522 394.816 87.3877 394.077 87.3877C393.337 87.3877 392.721 87.5522 392.104 87.9222C391.488 88.2922 391.036 88.7444 390.666 89.3611C390.297 89.9778 390.132 90.6356 390.132 91.3345V100.708H386.763V84.4276H390.132V86.1543C390.707 85.4965 391.406 84.9621 392.228 84.5509C393.049 84.1809 393.953 83.9753 394.898 83.9753C396.09 83.9753 397.199 84.2631 398.185 84.8387C399.172 85.4143 399.952 86.1954 400.527 87.2232C401.103 88.2099 401.39 89.32 401.39 90.5123L401.431 90.4711Z" fill="#F18700"/>
    <path d="M413.265 87.7576H409.854V100.667H406.444V87.7576H403.855V84.3864H406.444V79.2473H409.813V84.3864H413.265V87.7576Z" fill="#F18700"/>
    <path d="M430.234 101.119C428.919 101.119 427.728 100.79 426.701 100.174C425.673 99.5158 424.852 98.6936 424.276 97.6247C423.701 96.5968 423.373 95.4457 423.373 94.2123C423.373 93.5134 423.455 92.8967 423.578 92.4034C423.701 91.8689 423.948 91.3755 424.276 90.8822C424.605 90.3888 425.057 89.8133 425.632 89.1966C426.208 88.5799 426.947 87.8398 427.851 86.9354C427.358 86.442 426.947 85.9898 426.577 85.5787C426.208 85.1675 425.961 84.8386 425.797 84.5097C425.591 84.1808 425.468 83.8519 425.386 83.4819C425.304 83.1119 425.263 82.7008 425.263 82.2485C425.263 81.3029 425.509 80.4396 425.961 79.6996C426.413 78.9595 427.029 78.3428 427.769 77.8906C428.55 77.4384 429.371 77.2328 430.234 77.2328C431.097 77.2328 432.001 77.4384 432.741 77.8906C433.521 78.3428 434.097 78.9595 434.548 79.6996C435 80.4396 435.206 81.3029 435.206 82.2485C435.206 82.7008 435.165 83.1119 435.083 83.4819C435 83.8519 434.836 84.1808 434.631 84.5508C434.425 84.9209 434.179 85.2498 433.809 85.6198C433.439 85.9898 433.069 86.442 432.576 86.9354L437.507 91.8689L441.451 87.9221V92.7323L439.89 94.2945L443.958 98.3236L441.575 100.708L437.548 96.6791C436.644 97.5835 435.904 98.3236 435.247 98.8991C434.631 99.4747 434.055 99.927 433.562 100.256C433.069 100.585 432.535 100.79 432.042 100.955C431.508 101.078 430.933 101.16 430.234 101.16V101.119ZM430.234 97.7069C430.686 97.7069 431.056 97.6658 431.344 97.5424C431.631 97.4191 431.96 97.2546 432.289 97.008C432.617 96.7613 432.987 96.3913 433.439 95.939C433.891 95.4868 434.466 94.9112 435.124 94.2123L430.193 89.2788C429.495 89.9777 428.878 90.5944 428.426 91.0466C427.974 91.4989 427.605 91.8689 427.358 92.1978C427.112 92.5267 426.947 92.8145 426.865 93.1434C426.783 93.4723 426.701 93.8012 426.701 94.2534C426.701 94.9112 426.865 95.4868 427.194 96.0213C427.522 96.5557 427.933 96.9668 428.467 97.2546C429.002 97.5424 429.577 97.7069 430.193 97.7069H430.234ZM430.234 85.0031C430.768 84.4686 431.22 84.0164 431.508 83.7697C431.796 83.4819 432.001 83.2352 432.083 83.0297C432.206 82.8241 432.248 82.5363 432.248 82.2074C432.248 81.5907 432.042 81.1385 431.631 80.7685C431.22 80.3985 430.768 80.234 430.275 80.234C429.741 80.234 429.248 80.4396 428.878 80.8096C428.509 81.1796 428.303 81.6729 428.303 82.2074C428.303 82.5363 428.344 82.8241 428.467 83.0297C428.591 83.2352 428.796 83.523 429.084 83.7697C429.371 84.0575 429.782 84.4686 430.275 84.962L430.234 85.0031Z" fill="#F18700"/>
    <path d="M455.051 100.667V77.8495H462.57C464.132 77.8495 465.611 78.1373 467.008 78.754C468.364 79.3295 469.596 80.1518 470.624 81.2207C471.651 82.2897 472.473 83.4819 473.089 84.8386C473.664 86.1954 473.993 87.6754 473.993 89.2788C473.993 90.8822 473.705 92.3211 473.089 93.719C472.514 95.0757 471.692 96.3091 470.624 97.3369C469.555 98.3647 468.364 99.1869 467.008 99.8036C465.611 100.379 464.132 100.708 462.57 100.708H455.051V100.667ZM458.42 97.2958H462.57C463.68 97.2958 464.707 97.0902 465.652 96.6791C466.597 96.2679 467.46 95.6924 468.199 94.9523C468.939 94.2123 469.514 93.349 469.925 92.4034C470.336 91.4578 470.541 90.3888 470.541 89.2788C470.541 88.1688 470.336 87.1409 469.925 86.1542C469.514 85.1675 468.939 84.3453 468.199 83.6052C467.46 82.8652 466.597 82.2896 465.652 81.8785C464.707 81.4674 463.639 81.2618 462.57 81.2618H458.42V97.2958Z" fill="#F18700"/>
    <path d="M483.69 101.119C482.169 101.119 480.814 100.749 479.581 99.9682C478.348 99.187 477.362 98.1592 476.623 96.8847C475.883 95.5691 475.513 94.1302 475.513 92.5679C475.513 91.3756 475.719 90.2656 476.13 89.2378C476.54 88.21 477.157 87.3055 477.896 86.4832C478.636 85.661 479.499 85.0854 480.485 84.6331C481.471 84.1809 482.539 83.9753 483.649 83.9753C484.881 83.9753 486.032 84.222 487.1 84.7565C488.127 85.2498 489.031 85.9899 489.771 86.8944C490.51 87.7988 491.044 88.8266 491.414 90.0189C491.743 91.2112 491.866 92.4445 491.743 93.7602H479.17C479.293 94.5002 479.581 95.1991 479.992 95.7747C480.403 96.3914 480.937 96.8436 481.553 97.2136C482.169 97.5425 482.909 97.7481 483.69 97.7481C484.511 97.7481 485.251 97.5425 485.95 97.1314C486.648 96.7203 487.182 96.1447 487.634 95.4047L491.086 96.1858C490.428 97.6247 489.442 98.817 488.127 99.7215C486.812 100.626 485.333 101.078 483.731 101.078L483.69 101.119ZM479.047 91.1289H488.292C488.168 90.3478 487.922 89.6489 487.47 88.9911C487.018 88.3744 486.484 87.8399 485.826 87.4699C485.169 87.0999 484.47 86.8944 483.69 86.8944C482.909 86.8944 482.211 87.0588 481.553 87.4288C480.896 87.7988 480.362 88.2922 479.91 88.95C479.458 89.6078 479.211 90.3067 479.047 91.0878V91.1289Z" fill="#F18700"/>
    <path d="M499.385 100.996C498.522 100.955 497.701 100.749 496.879 100.461C496.057 100.174 495.359 99.7625 494.742 99.2692C494.126 98.7758 493.674 98.1592 493.386 97.5014L496.263 96.268C496.386 96.5558 496.632 96.8436 497.002 97.1313C497.372 97.4191 497.783 97.6247 498.235 97.8303C498.728 97.9947 499.221 98.118 499.755 98.118C500.289 98.118 500.741 98.0358 501.193 97.9125C501.645 97.748 501.974 97.5425 502.261 97.2136C502.549 96.9258 502.672 96.5558 502.672 96.1446C502.672 95.6513 502.508 95.2813 502.179 95.0346C501.851 94.7468 501.44 94.5824 500.988 94.4179C500.495 94.2946 500.043 94.1301 499.55 94.0068C498.481 93.7601 497.495 93.4312 496.632 93.0201C495.728 92.6089 495.03 92.0745 494.537 91.4167C494.003 90.7589 493.756 89.9366 493.756 88.991C493.756 87.9632 494.044 87.0587 494.619 86.2776C495.194 85.4965 495.934 84.9209 496.838 84.5098C497.742 84.0986 498.728 83.8931 499.796 83.8931C501.111 83.8931 502.303 84.1809 503.371 84.7153C504.439 85.2498 505.302 86.0309 505.877 86.9765L503.207 88.5799C503.042 88.251 502.796 87.9632 502.467 87.7165C502.138 87.4699 501.768 87.2643 501.358 87.0999C500.947 86.9354 500.536 86.8532 500.084 86.8121C499.55 86.8121 499.016 86.8121 498.522 87.0176C498.071 87.1821 497.66 87.3876 497.372 87.7165C497.084 88.0454 496.961 88.4155 496.961 88.9088C496.961 89.4022 497.125 89.7311 497.454 89.9777C497.783 90.2244 498.235 90.3889 498.728 90.5533C499.262 90.7178 499.755 90.8411 500.33 91.0467C501.275 91.3345 502.22 91.7456 503.042 92.1567C503.905 92.609 504.562 93.1434 505.097 93.7601C505.631 94.3768 505.877 95.199 505.836 96.1035C505.836 97.1313 505.507 98.0358 504.932 98.7759C504.357 99.5159 503.535 100.133 502.549 100.544C501.563 100.955 500.536 101.119 499.426 101.037L499.385 100.996Z" fill="#F18700"/>
    <path d="M510.027 82.0429C509.493 82.0429 509.082 81.8784 508.712 81.5495C508.384 81.2206 508.178 80.8095 508.178 80.275C508.178 79.7406 508.343 79.3706 508.712 79.0005C509.041 78.6716 509.493 78.5072 509.986 78.5072C510.479 78.5072 510.89 78.6716 511.26 79.0005C511.589 79.3295 511.794 79.7817 511.794 80.275C511.794 80.7684 511.63 81.2206 511.301 81.5495C510.972 81.8784 510.52 82.0429 510.027 82.0429ZM508.301 84.4274H511.671V100.708H508.301V84.4274Z" fill="#F18700"/>
    <path d="M527.695 84.3865H531.105V101.119C531.105 102.229 530.859 103.257 530.407 104.203C529.914 105.148 529.297 105.971 528.476 106.67C527.654 107.368 526.75 107.903 525.723 108.273C524.695 108.643 523.586 108.848 522.477 108.848C521.367 108.848 520.258 108.602 519.19 108.108C518.121 107.615 517.217 106.957 516.396 106.135C515.615 105.313 514.999 104.367 514.629 103.339L517.752 101.942C517.957 102.599 518.327 103.216 518.779 103.751C519.272 104.285 519.806 104.696 520.463 104.984C521.121 105.272 521.778 105.436 522.477 105.436C523.175 105.436 523.792 105.313 524.408 105.107C525.024 104.902 525.599 104.614 526.092 104.203C526.586 103.833 526.996 103.381 527.284 102.846C527.572 102.312 527.736 101.736 527.736 101.119V98.3648C527.202 99.187 526.503 99.8448 525.682 100.379C524.86 100.914 523.874 101.119 522.764 101.119C521.655 101.119 520.546 100.914 519.518 100.462C518.491 100.009 517.587 99.3926 516.848 98.6114C516.067 97.8303 515.492 96.9258 515.04 95.898C514.588 94.8702 514.382 93.7601 514.382 92.5679C514.382 91.3756 514.588 90.2656 515.04 89.2378C515.492 88.21 516.067 87.3055 516.848 86.4832C517.628 85.661 518.532 85.0854 519.518 84.6331C520.546 84.1809 521.614 83.9753 522.764 83.9753C523.915 83.9753 524.86 84.222 525.682 84.7154C526.503 85.2087 527.202 85.9076 527.736 86.7299V84.3865H527.695ZM522.764 97.8303C523.709 97.8303 524.531 97.5836 525.23 97.0903C525.928 96.5969 526.462 95.9802 526.873 95.158C527.284 94.3357 527.448 93.4724 527.448 92.5268C527.448 91.5812 527.243 90.6767 526.832 89.8544C526.421 89.0733 525.887 88.4155 525.189 87.9222C524.49 87.4288 523.668 87.1821 522.723 87.1821C521.778 87.1821 520.998 87.4288 520.217 87.881C519.436 88.3333 518.861 88.9911 518.409 89.8133C517.957 90.6356 517.752 91.499 517.752 92.4857C517.752 93.4724 517.957 94.3357 518.409 95.158C518.861 95.9802 519.477 96.5969 520.217 97.0903C520.956 97.5836 521.778 97.7892 522.682 97.7892L522.764 97.8303Z" fill="#F18700"/>
    <path d="M549.636 90.4711V100.708H546.226V91.3345C546.226 90.5945 546.061 89.9367 545.692 89.3611C545.363 88.7855 544.87 88.2922 544.295 87.9222C543.719 87.5522 543.021 87.3877 542.281 87.3877C541.542 87.3877 540.925 87.5522 540.309 87.9222C539.693 88.2922 539.241 88.7444 538.871 89.3611C538.501 89.9778 538.337 90.6356 538.337 91.3345V100.708H534.968V84.4276H538.337V86.1543C538.912 85.4965 539.61 84.9621 540.432 84.5509C541.254 84.1809 542.158 83.9753 543.103 83.9753C544.295 83.9753 545.404 84.2631 546.39 84.8387C547.376 85.4143 548.157 86.1954 548.732 87.2232C549.307 88.2099 549.595 89.32 549.595 90.5123L549.636 90.4711Z" fill="#F18700"/>
    <defs>
        <radialGradient id="paint0_radial_156_8" cx="0" cy="0" r="1" gradientUnits="userSpaceOnUse" gradientTransform="translate(94.1944 6.85018) scale(123.429 123.502)">
            <stop stop-color="#F9B000"/>
            <stop offset="0.29" stop-color="#F28E00"/>
            <stop offset="0.74" stop-color="#EB5C0A"/>
            <stop offset="1" stop-color="#E73E11"/>
        </radialGradient>
        <radialGradient id="paint1_radial_156_8" cx="0" cy="0" r="1" gradientUnits="userSpaceOnUse" gradientTransform="translate(94.1944 6.8502) scale(123.429 123.502)">
            <stop stop-color="#F9B000"/>
            <stop offset="0.36" stop-color="#F28E00"/>
            <stop offset="0.84" stop-color="#EA5C0A"/>
            <stop offset="1" stop-color="#E84B0F"/>
        </radialGradient>
    </defs>
</svg>
