<svg width="15" height="15" viewBox="0 0 15 15" fill="currentColor" xmlns="http://www.w3.org/2000/svg">
<path d="M7.44844 10.0953L8.3207 10.5984L9.03164 9.8875L9.93945 8.97969L12.5152 10.0078L12.0285 12.6848C6.16328 12.5699 1.43008 7.83672 1.31523 1.96875L3.99219 1.48203L5.02305 4.05781L4.11523 4.96563L3.4043 5.67656L3.90742 6.54883C4.75508 8.01992 5.98008 9.24492 7.45117 10.0926L7.44844 10.0953ZM14 9.1875L9.625 7.4375L8.10469 8.95781C6.8332 8.225 5.775 7.1668 5.04219 5.89531L6.5625 4.375L4.8125 0L0 0.875V1.75C0 8.51484 5.48516 14 12.25 14H13.125L14 9.1875ZM11.3148 0.628906L10.85 0.164062L9.92305 1.09375L10.3879 1.55859L11.4543 2.625H8.53125H7.875V3.9375H8.53125H11.4543L10.3879 5.00391L9.92305 5.46875L10.85 6.3957L11.3148 5.93086L13.5023 3.74336L13.9672 3.27852L13.5023 2.81367L11.3148 0.626172V0.628906Z" fill="white"/>
</svg>