<svg width="16" height="16" viewBox="0 0 16 16" fill="none" xmlns="http://www.w3.org/2000/svg"><path d="M13.6371 4.03937C13.4232 4.46417 13.1273 4.91827 12.8021 5.34894C12.7084 5.47491 12.6146 5.59503 12.5209 5.71222C12.4271 5.59796 12.3334 5.47491 12.2396 5.34894C11.9174 4.91827 11.6185 4.46417 11.4047 4.03937C11.182 3.59113 11.1146 3.29523 11.1146 3.14581C11.1146 2.36945 11.7445 1.73956 12.5209 1.73956C13.2972 1.73956 13.9271 2.36945 13.9271 3.14581C13.9271 3.29523 13.8597 3.59406 13.6371 4.03937ZM13.4613 6.78156C14.2787 5.79425 15.3334 4.29425 15.3334 3.14581C15.3334 1.59308 14.0736 0.333313 12.5209 0.333313C10.9681 0.333313 9.70837 1.59308 9.70837 3.14581C9.70837 4.16241 10.5375 5.45734 11.2933 6.42706H8.06775H7.36462V7.13019V10.8802V11.5833H8.06775H13.9271V13.9271H5.54236C5.46326 14.0384 5.38123 14.1497 5.30212 14.2552C4.98865 14.6712 4.6781 15.0433 4.42322 15.3333H14.6302H15.3334V14.6302V10.8802V10.1771H14.6302H8.77087V7.83331H12.5209C12.5209 7.83331 12.9427 7.41144 13.4613 6.78448V6.78156ZM4.26209 11.5394C4.04822 11.9642 3.75232 12.4183 3.42712 12.8489C3.33337 12.9749 3.23962 13.095 3.14587 13.2122C3.05212 13.098 2.95837 12.9749 2.86462 12.8489C2.54236 12.4183 2.24353 11.9642 2.02966 11.5394C1.80701 11.0941 1.73962 10.7952 1.73962 10.6458C1.73962 9.86945 2.36951 9.23956 3.14587 9.23956C3.92224 9.23956 4.55212 9.86945 4.55212 10.6458C4.55212 10.7952 4.48474 11.0941 4.26209 11.5394ZM4.37341 13.9271C5.1322 12.9573 5.95837 11.6624 5.95837 10.6458C5.95837 9.09308 4.69861 7.83331 3.14587 7.83331C1.59314 7.83331 0.333374 9.09308 0.333374 10.6458C0.333374 11.7943 1.38806 13.2943 2.20544 14.2845C2.724 14.9114 3.14587 15.3333 3.14587 15.3333C3.14587 15.3333 3.27478 15.2044 3.47693 14.9847C3.47986 14.9788 3.48572 14.9759 3.48865 14.97C3.57361 14.8763 3.67322 14.765 3.78162 14.6419C3.79041 14.6331 3.79919 14.6214 3.80798 14.6126C3.89587 14.5101 3.98962 14.4017 4.0863 14.2816C4.18005 14.1702 4.27673 14.0501 4.37341 13.9241V13.9271Z" fill="currentColor"/></svg>