<svg width="15" height="15" viewBox="0 0 15 15" fill="currentColor" xmlns="http://www.w3.org/2000/svg">
<path d="M6.5625 1H7.26562H10.0781H10.7812V1.69643V2.65402C10.7812 3.53326 10.6084 4.38929 10.2861 5.17857H13.125H14.2969H15V5.875V8.19643V8.89286H14.5312V10.0536V10.75H13.8281V11.9107V12.6071H13.125V13.3036V14H12.4219H11.25H7.96875H7.61426H7.40039L7.22461 13.8839L6.92871 13.6895L4.6875 12.2096V10.5353L7.70801 12.5317L7.8252 12.61H7.96582H11.2471H11.7158V11.9136V11.2172H12.4189V10.0565V9.36004H13.1221V8.19933V7.5029H13.5908V6.57433H13.1221H9.13477H7.86035L8.54004 5.50647C9.07617 4.66496 9.375 3.68125 9.375 2.65402V2.39286H7.96875V2.65402C7.96875 4.09911 7.17188 5.42812 5.8916 6.11875L5.75684 6.19129L5.21191 6.48438L5.05371 6.56853H4.875H4.80469H4.6875V5.17567H4.69629L5.08301 4.96674L5.21777 4.8942C6.04688 4.45022 6.5625 3.58839 6.5625 2.65402V1.69643V1ZM3.75 5.64286V14H0V5.64286H3.75Z" fill="white"/>
</svg>